<svg width="20" height="16" viewBox="0 0 20 16" fill="none" xmlns="http://www.w3.org/2000/svg">
<path d="M19.1666 0.500079C18.3686 1.06298 17.4851 1.4935 16.55 1.77508C16.0481 1.198 15.3811 0.788989 14.6392 0.603351C13.8973 0.417713 13.1162 0.464409 12.4017 0.737123C11.6872 1.00984 11.0737 1.49541 10.6441 2.12818C10.2146 2.76094 9.98973 3.51036 9.99998 4.27508V5.10841C8.53551 5.14639 7.08437 4.82159 5.77582 4.16295C4.46727 3.50431 3.34191 2.53228 2.49998 1.33341C2.49998 1.33341 -0.833354 8.83341 6.66665 12.1667C4.95042 13.3317 2.90594 13.9159 0.833313 13.8334C8.33331 18.0001 17.5 13.8334 17.5 4.25008C17.4992 4.01796 17.4769 3.78641 17.4333 3.55841C18.2838 2.71966 18.884 1.66067 19.1666 0.500079Z" fill="white"/>
</svg>
